<mxfile host="app.diagrams.net" modified="2023-11-22T14:40:44.046Z" agent="Mozilla/5.0 (Windows NT 10.0; Win64; x64) AppleWebKit/537.36 (KHTML, like Gecko) Chrome/119.0.0.0 Safari/537.36" etag="UBUUq8nycGOx-7lSURNQ" version="22.1.3" type="device">
  <diagram name="Page-1" id="oRUqQf3e35jGyRy10Chf">
    <mxGraphModel dx="1446" dy="1005" grid="1" gridSize="10" guides="1" tooltips="1" connect="1" arrows="1" fold="1" page="1" pageScale="1" pageWidth="850" pageHeight="1100" math="0" shadow="0">
      <root>
        <mxCell id="0" />
        <mxCell id="1" parent="0" />
        <mxCell id="HPn-6qh27rEuBPYR_i4v-1" value="&lt;u&gt;&lt;b&gt;:OrderProductUI&lt;/b&gt;&lt;/u&gt;" style="shape=umlLifeline;perimeter=lifelinePerimeter;whiteSpace=wrap;html=1;container=1;dropTarget=0;collapsible=0;recursiveResize=0;outlineConnect=0;portConstraint=eastwest;newEdgeStyle={&quot;curved&quot;:0,&quot;rounded&quot;:0};fontSize=16;" vertex="1" parent="1">
          <mxGeometry x="220" y="120" width="140" height="800" as="geometry" />
        </mxCell>
        <mxCell id="HPn-6qh27rEuBPYR_i4v-10" value="" style="html=1;points=[[0,0,0,0,5],[0,1,0,0,-5],[1,0,0,0,5],[1,1,0,0,-5]];perimeter=orthogonalPerimeter;outlineConnect=0;targetShapes=umlLifeline;portConstraint=eastwest;newEdgeStyle={&quot;curved&quot;:0,&quot;rounded&quot;:0};fontSize=16;" vertex="1" parent="HPn-6qh27rEuBPYR_i4v-1">
          <mxGeometry x="65" y="70" width="10" height="40" as="geometry" />
        </mxCell>
        <mxCell id="HPn-6qh27rEuBPYR_i4v-15" value="" style="html=1;points=[[0,0,0,0,5],[0,1,0,0,-5],[1,0,0,0,5],[1,1,0,0,-5]];perimeter=orthogonalPerimeter;outlineConnect=0;targetShapes=umlLifeline;portConstraint=eastwest;newEdgeStyle={&quot;curved&quot;:0,&quot;rounded&quot;:0};fontSize=16;" vertex="1" parent="HPn-6qh27rEuBPYR_i4v-1">
          <mxGeometry x="65" y="160" width="10" height="40" as="geometry" />
        </mxCell>
        <mxCell id="HPn-6qh27rEuBPYR_i4v-21" value="" style="html=1;points=[[0,0,0,0,5],[0,1,0,0,-5],[1,0,0,0,5],[1,1,0,0,-5]];perimeter=orthogonalPerimeter;outlineConnect=0;targetShapes=umlLifeline;portConstraint=eastwest;newEdgeStyle={&quot;curved&quot;:0,&quot;rounded&quot;:0};fontSize=16;" vertex="1" parent="HPn-6qh27rEuBPYR_i4v-1">
          <mxGeometry x="65" y="240" width="10" height="40" as="geometry" />
        </mxCell>
        <mxCell id="HPn-6qh27rEuBPYR_i4v-40" value="" style="html=1;points=[[0,0,0,0,5],[0,1,0,0,-5],[1,0,0,0,5],[1,1,0,0,-5]];perimeter=orthogonalPerimeter;outlineConnect=0;targetShapes=umlLifeline;portConstraint=eastwest;newEdgeStyle={&quot;curved&quot;:0,&quot;rounded&quot;:0};fontSize=16;" vertex="1" parent="HPn-6qh27rEuBPYR_i4v-1">
          <mxGeometry x="65" y="570" width="10" height="50" as="geometry" />
        </mxCell>
        <mxCell id="HPn-6qh27rEuBPYR_i4v-49" value="" style="html=1;points=[[0,0,0,0,5],[0,1,0,0,-5],[1,0,0,0,5],[1,1,0,0,-5]];perimeter=orthogonalPerimeter;outlineConnect=0;targetShapes=umlLifeline;portConstraint=eastwest;newEdgeStyle={&quot;curved&quot;:0,&quot;rounded&quot;:0};fontSize=16;" vertex="1" parent="HPn-6qh27rEuBPYR_i4v-1">
          <mxGeometry x="65" y="680" width="10" height="80" as="geometry" />
        </mxCell>
        <mxCell id="HPn-6qh27rEuBPYR_i4v-2" value="" style="shape=umlLifeline;perimeter=lifelinePerimeter;whiteSpace=wrap;html=1;container=1;dropTarget=0;collapsible=0;recursiveResize=0;outlineConnect=0;portConstraint=eastwest;newEdgeStyle={&quot;curved&quot;:0,&quot;rounded&quot;:0};participant=umlActor;fontSize=16;" vertex="1" parent="1">
          <mxGeometry x="70" y="120" width="20" height="800" as="geometry" />
        </mxCell>
        <mxCell id="HPn-6qh27rEuBPYR_i4v-3" value="&lt;u&gt;&lt;b&gt;:OrderProduct&lt;/b&gt;&lt;/u&gt;" style="shape=umlLifeline;perimeter=lifelinePerimeter;whiteSpace=wrap;html=1;container=1;dropTarget=0;collapsible=0;recursiveResize=0;outlineConnect=0;portConstraint=eastwest;newEdgeStyle={&quot;curved&quot;:0,&quot;rounded&quot;:0};fontSize=16;" vertex="1" parent="1">
          <mxGeometry x="400" y="120" width="120" height="800" as="geometry" />
        </mxCell>
        <mxCell id="HPn-6qh27rEuBPYR_i4v-11" value="" style="html=1;points=[[0,0,0,0,5],[0,1,0,0,-5],[1,0,0,0,5],[1,1,0,0,-5]];perimeter=orthogonalPerimeter;outlineConnect=0;targetShapes=umlLifeline;portConstraint=eastwest;newEdgeStyle={&quot;curved&quot;:0,&quot;rounded&quot;:0};fontSize=16;" vertex="1" parent="HPn-6qh27rEuBPYR_i4v-3">
          <mxGeometry x="55" y="80" width="10" height="50" as="geometry" />
        </mxCell>
        <mxCell id="HPn-6qh27rEuBPYR_i4v-18" value="" style="html=1;points=[[0,0,0,0,5],[0,1,0,0,-5],[1,0,0,0,5],[1,1,0,0,-5]];perimeter=orthogonalPerimeter;outlineConnect=0;targetShapes=umlLifeline;portConstraint=eastwest;newEdgeStyle={&quot;curved&quot;:0,&quot;rounded&quot;:0};fontSize=16;" vertex="1" parent="HPn-6qh27rEuBPYR_i4v-3">
          <mxGeometry x="55" y="160" width="10" height="60" as="geometry" />
        </mxCell>
        <mxCell id="HPn-6qh27rEuBPYR_i4v-22" value="" style="html=1;points=[[0,0,0,0,5],[0,1,0,0,-5],[1,0,0,0,5],[1,1,0,0,-5]];perimeter=orthogonalPerimeter;outlineConnect=0;targetShapes=umlLifeline;portConstraint=eastwest;newEdgeStyle={&quot;curved&quot;:0,&quot;rounded&quot;:0};fontSize=16;" vertex="1" parent="HPn-6qh27rEuBPYR_i4v-3">
          <mxGeometry x="55" y="250" width="10" height="50" as="geometry" />
        </mxCell>
        <mxCell id="HPn-6qh27rEuBPYR_i4v-50" value="" style="html=1;points=[[0,0,0,0,5],[0,1,0,0,-5],[1,0,0,0,5],[1,1,0,0,-5]];perimeter=orthogonalPerimeter;outlineConnect=0;targetShapes=umlLifeline;portConstraint=eastwest;newEdgeStyle={&quot;curved&quot;:0,&quot;rounded&quot;:0};fontSize=16;" vertex="1" parent="HPn-6qh27rEuBPYR_i4v-3">
          <mxGeometry x="55" y="680" width="10" height="80" as="geometry" />
        </mxCell>
        <mxCell id="HPn-6qh27rEuBPYR_i4v-4" value="&lt;b&gt;&lt;u&gt;:Customer&lt;/u&gt;&lt;/b&gt;" style="shape=umlLifeline;perimeter=lifelinePerimeter;whiteSpace=wrap;html=1;container=1;dropTarget=0;collapsible=0;recursiveResize=0;outlineConnect=0;portConstraint=eastwest;newEdgeStyle={&quot;curved&quot;:0,&quot;rounded&quot;:0};fontSize=16;" vertex="1" parent="1">
          <mxGeometry x="580" y="120" width="100" height="800" as="geometry" />
        </mxCell>
        <mxCell id="HPn-6qh27rEuBPYR_i4v-12" value="" style="html=1;points=[[0,0,0,0,5],[0,1,0,0,-5],[1,0,0,0,5],[1,1,0,0,-5]];perimeter=orthogonalPerimeter;outlineConnect=0;targetShapes=umlLifeline;portConstraint=eastwest;newEdgeStyle={&quot;curved&quot;:0,&quot;rounded&quot;:0};fontSize=16;" vertex="1" parent="HPn-6qh27rEuBPYR_i4v-4">
          <mxGeometry x="45" y="80" width="10" height="60" as="geometry" />
        </mxCell>
        <mxCell id="HPn-6qh27rEuBPYR_i4v-5" value="&lt;b&gt;&lt;u&gt;:ProductDetails&lt;/u&gt;&lt;/b&gt;" style="shape=umlLifeline;perimeter=lifelinePerimeter;whiteSpace=wrap;html=1;container=1;dropTarget=0;collapsible=0;recursiveResize=0;outlineConnect=0;portConstraint=eastwest;newEdgeStyle={&quot;curved&quot;:0,&quot;rounded&quot;:0};fontSize=16;" vertex="1" parent="1">
          <mxGeometry x="760" y="120" width="130" height="800" as="geometry" />
        </mxCell>
        <mxCell id="HPn-6qh27rEuBPYR_i4v-19" value="" style="html=1;points=[[0,0,0,0,5],[0,1,0,0,-5],[1,0,0,0,5],[1,1,0,0,-5]];perimeter=orthogonalPerimeter;outlineConnect=0;targetShapes=umlLifeline;portConstraint=eastwest;newEdgeStyle={&quot;curved&quot;:0,&quot;rounded&quot;:0};fontSize=16;" vertex="1" parent="HPn-6qh27rEuBPYR_i4v-5">
          <mxGeometry x="60" y="160" width="10" height="60" as="geometry" />
        </mxCell>
        <mxCell id="HPn-6qh27rEuBPYR_i4v-6" value="&lt;b&gt;&lt;u&gt;:ProductStatus&lt;/u&gt;&lt;/b&gt;" style="shape=umlLifeline;perimeter=lifelinePerimeter;whiteSpace=wrap;html=1;container=1;dropTarget=0;collapsible=0;recursiveResize=0;outlineConnect=0;portConstraint=eastwest;newEdgeStyle={&quot;curved&quot;:0,&quot;rounded&quot;:0};fontSize=16;" vertex="1" parent="1">
          <mxGeometry x="960" y="120" width="130" height="800" as="geometry" />
        </mxCell>
        <mxCell id="HPn-6qh27rEuBPYR_i4v-7" value="&lt;b&gt;&lt;u&gt;:Fee&lt;/u&gt;&lt;/b&gt;" style="shape=umlLifeline;perimeter=lifelinePerimeter;whiteSpace=wrap;html=1;container=1;dropTarget=0;collapsible=0;recursiveResize=0;outlineConnect=0;portConstraint=eastwest;newEdgeStyle={&quot;curved&quot;:0,&quot;rounded&quot;:0};fontSize=16;" vertex="1" parent="1">
          <mxGeometry x="1160" y="120" width="100" height="800" as="geometry" />
        </mxCell>
        <mxCell id="HPn-6qh27rEuBPYR_i4v-39" value="" style="html=1;points=[[0,0,0,0,5],[0,1,0,0,-5],[1,0,0,0,5],[1,1,0,0,-5]];perimeter=orthogonalPerimeter;outlineConnect=0;targetShapes=umlLifeline;portConstraint=eastwest;newEdgeStyle={&quot;curved&quot;:0,&quot;rounded&quot;:0};fontSize=16;" vertex="1" parent="HPn-6qh27rEuBPYR_i4v-7">
          <mxGeometry x="45" y="570" width="10" height="60" as="geometry" />
        </mxCell>
        <mxCell id="HPn-6qh27rEuBPYR_i4v-52" value="" style="html=1;points=[[0,0,0,0,5],[0,1,0,0,-5],[1,0,0,0,5],[1,1,0,0,-5]];perimeter=orthogonalPerimeter;outlineConnect=0;targetShapes=umlLifeline;portConstraint=eastwest;newEdgeStyle={&quot;curved&quot;:0,&quot;rounded&quot;:0};fontSize=16;" vertex="1" parent="HPn-6qh27rEuBPYR_i4v-7">
          <mxGeometry x="45" y="680" width="10" height="80" as="geometry" />
        </mxCell>
        <mxCell id="HPn-6qh27rEuBPYR_i4v-8" value="&lt;b&gt;Customer&lt;/b&gt;" style="text;html=1;align=center;verticalAlign=middle;resizable=0;points=[];autosize=1;strokeColor=none;fillColor=none;fontSize=16;" vertex="1" parent="1">
          <mxGeometry x="30" y="150" width="100" height="30" as="geometry" />
        </mxCell>
        <mxCell id="HPn-6qh27rEuBPYR_i4v-9" value="&lt;font style=&quot;font-size: 14px;&quot;&gt;ProvideDetails()&lt;/font&gt;" style="html=1;verticalAlign=bottom;endArrow=block;curved=0;rounded=0;fontSize=12;startSize=8;endSize=8;" edge="1" parent="1" target="HPn-6qh27rEuBPYR_i4v-10">
          <mxGeometry width="80" relative="1" as="geometry">
            <mxPoint x="80" y="200" as="sourcePoint" />
            <mxPoint x="279.5000000000001" y="200" as="targetPoint" />
          </mxGeometry>
        </mxCell>
        <mxCell id="HPn-6qh27rEuBPYR_i4v-13" value="&lt;font style=&quot;font-size: 14px;&quot;&gt;RecordDetails(&lt;/font&gt;)" style="html=1;verticalAlign=bottom;endArrow=block;curved=0;rounded=0;fontSize=12;startSize=8;endSize=8;" edge="1" parent="1">
          <mxGeometry width="80" relative="1" as="geometry">
            <mxPoint x="295" y="220" as="sourcePoint" />
            <mxPoint x="455" y="220" as="targetPoint" />
          </mxGeometry>
        </mxCell>
        <mxCell id="HPn-6qh27rEuBPYR_i4v-14" value="&lt;font style=&quot;font-size: 14px;&quot;&gt;StoreDetails()&lt;/font&gt;" style="html=1;verticalAlign=bottom;endArrow=block;curved=0;rounded=0;fontSize=12;startSize=8;endSize=8;entryX=0.5;entryY=0.625;entryDx=0;entryDy=0;entryPerimeter=0;" edge="1" parent="1" source="HPn-6qh27rEuBPYR_i4v-11" target="HPn-6qh27rEuBPYR_i4v-12">
          <mxGeometry width="80" relative="1" as="geometry">
            <mxPoint x="470" y="240" as="sourcePoint" />
            <mxPoint x="620" y="240" as="targetPoint" />
          </mxGeometry>
        </mxCell>
        <mxCell id="HPn-6qh27rEuBPYR_i4v-16" value="&lt;font style=&quot;font-size: 14px;&quot;&gt;ChooseProducts()&lt;/font&gt;" style="html=1;verticalAlign=bottom;endArrow=block;curved=0;rounded=0;fontSize=12;startSize=8;endSize=8;entryX=0;entryY=0;entryDx=0;entryDy=5;entryPerimeter=0;" edge="1" parent="1" source="HPn-6qh27rEuBPYR_i4v-2" target="HPn-6qh27rEuBPYR_i4v-15">
          <mxGeometry width="80" relative="1" as="geometry">
            <mxPoint x="100" y="310" as="sourcePoint" />
            <mxPoint x="180" y="310" as="targetPoint" />
          </mxGeometry>
        </mxCell>
        <mxCell id="HPn-6qh27rEuBPYR_i4v-17" value="&lt;font style=&quot;font-size: 14px;&quot;&gt;AddToCart()&lt;/font&gt;" style="html=1;verticalAlign=bottom;endArrow=block;curved=0;rounded=0;fontSize=12;startSize=8;endSize=8;" edge="1" parent="1" source="HPn-6qh27rEuBPYR_i4v-15" target="HPn-6qh27rEuBPYR_i4v-18">
          <mxGeometry width="80" relative="1" as="geometry">
            <mxPoint x="300" y="320" as="sourcePoint" />
            <mxPoint x="380" y="320" as="targetPoint" />
          </mxGeometry>
        </mxCell>
        <mxCell id="HPn-6qh27rEuBPYR_i4v-20" value="&lt;font style=&quot;font-size: 14px;&quot;&gt;StoreProductDetails()&lt;/font&gt;" style="html=1;verticalAlign=bottom;endArrow=block;curved=0;rounded=0;fontSize=12;startSize=8;endSize=8;" edge="1" parent="1" source="HPn-6qh27rEuBPYR_i4v-18" target="HPn-6qh27rEuBPYR_i4v-19">
          <mxGeometry width="80" relative="1" as="geometry">
            <mxPoint x="700" y="330" as="sourcePoint" />
            <mxPoint x="780" y="330" as="targetPoint" />
          </mxGeometry>
        </mxCell>
        <mxCell id="HPn-6qh27rEuBPYR_i4v-23" value="&lt;font style=&quot;font-size: 14px;&quot;&gt;ProvideBookingInfo()&lt;/font&gt;" style="html=1;verticalAlign=bottom;endArrow=block;curved=0;rounded=0;fontSize=12;startSize=8;endSize=8;entryX=0;entryY=0;entryDx=0;entryDy=5;entryPerimeter=0;" edge="1" parent="1">
          <mxGeometry width="80" relative="1" as="geometry">
            <mxPoint x="79.54761904761904" y="370" as="sourcePoint" />
            <mxPoint x="285" y="370" as="targetPoint" />
          </mxGeometry>
        </mxCell>
        <mxCell id="HPn-6qh27rEuBPYR_i4v-24" value="&lt;font style=&quot;font-size: 14px;&quot;&gt;RecordBookingInfo()&lt;/font&gt;" style="html=1;verticalAlign=bottom;endArrow=block;curved=0;rounded=0;fontSize=12;startSize=8;endSize=8;" edge="1" parent="1">
          <mxGeometry width="80" relative="1" as="geometry">
            <mxPoint x="295" y="390.0000000000001" as="sourcePoint" />
            <mxPoint x="455" y="390.0000000000001" as="targetPoint" />
            <mxPoint as="offset" />
          </mxGeometry>
        </mxCell>
        <mxCell id="HPn-6qh27rEuBPYR_i4v-25" value="Alt" style="shape=umlFrame;whiteSpace=wrap;html=1;pointerEvents=0;fontSize=16;" vertex="1" parent="1">
          <mxGeometry x="20" y="430" width="1110" height="200" as="geometry" />
        </mxCell>
        <mxCell id="HPn-6qh27rEuBPYR_i4v-26" value="" style="line;strokeWidth=1;fillColor=none;align=left;verticalAlign=middle;spacingTop=-1;spacingLeft=3;spacingRight=3;rotatable=0;labelPosition=right;points=[];portConstraint=eastwest;strokeColor=inherit;fontSize=16;" vertex="1" parent="1">
          <mxGeometry x="20" y="520" width="1110" height="8" as="geometry" />
        </mxCell>
        <mxCell id="HPn-6qh27rEuBPYR_i4v-27" value="IF(ProductAvailable)" style="text;html=1;align=center;verticalAlign=middle;resizable=0;points=[];autosize=1;strokeColor=none;fillColor=none;fontSize=16;" vertex="1" parent="1">
          <mxGeometry x="460" y="430" width="170" height="30" as="geometry" />
        </mxCell>
        <mxCell id="HPn-6qh27rEuBPYR_i4v-28" value="Else (ProductNotAvailable)" style="text;html=1;align=center;verticalAlign=middle;resizable=0;points=[];autosize=1;strokeColor=none;fillColor=none;fontSize=16;" vertex="1" parent="1">
          <mxGeometry x="415" y="520" width="210" height="30" as="geometry" />
        </mxCell>
        <mxCell id="HPn-6qh27rEuBPYR_i4v-29" value="" style="html=1;points=[[0,0,0,0,5],[0,1,0,0,-5],[1,0,0,0,5],[1,1,0,0,-5]];perimeter=orthogonalPerimeter;outlineConnect=0;targetShapes=umlLifeline;portConstraint=eastwest;newEdgeStyle={&quot;curved&quot;:0,&quot;rounded&quot;:0};fontSize=16;" vertex="1" parent="1">
          <mxGeometry x="1020" y="460" width="10" height="60" as="geometry" />
        </mxCell>
        <mxCell id="HPn-6qh27rEuBPYR_i4v-30" value="" style="html=1;points=[[0,0,0,0,5],[0,1,0,0,-5],[1,0,0,0,5],[1,1,0,0,-5]];perimeter=orthogonalPerimeter;outlineConnect=0;targetShapes=umlLifeline;portConstraint=eastwest;newEdgeStyle={&quot;curved&quot;:0,&quot;rounded&quot;:0};fontSize=16;" vertex="1" parent="1">
          <mxGeometry x="455" y="460" width="10" height="50" as="geometry" />
        </mxCell>
        <mxCell id="HPn-6qh27rEuBPYR_i4v-31" value="" style="html=1;points=[[0,0,0,0,5],[0,1,0,0,-5],[1,0,0,0,5],[1,1,0,0,-5]];perimeter=orthogonalPerimeter;outlineConnect=0;targetShapes=umlLifeline;portConstraint=eastwest;newEdgeStyle={&quot;curved&quot;:0,&quot;rounded&quot;:0};fontSize=16;" vertex="1" parent="1">
          <mxGeometry x="285" y="460" width="10" height="50" as="geometry" />
        </mxCell>
        <mxCell id="HPn-6qh27rEuBPYR_i4v-32" value="&lt;font style=&quot;font-size: 14px;&quot;&gt;ProductStatusPositive()&lt;/font&gt;" style="html=1;verticalAlign=bottom;endArrow=open;dashed=1;endSize=8;curved=0;rounded=0;fontSize=12;" edge="1" parent="1">
          <mxGeometry relative="1" as="geometry">
            <mxPoint x="1020" y="470" as="sourcePoint" />
            <mxPoint x="465" y="470" as="targetPoint" />
          </mxGeometry>
        </mxCell>
        <mxCell id="HPn-6qh27rEuBPYR_i4v-33" value="" style="html=1;points=[[0,0,0,0,5],[0,1,0,0,-5],[1,0,0,0,5],[1,1,0,0,-5]];perimeter=orthogonalPerimeter;outlineConnect=0;targetShapes=umlLifeline;portConstraint=eastwest;newEdgeStyle={&quot;curved&quot;:0,&quot;rounded&quot;:0};fontSize=16;" vertex="1" parent="1">
          <mxGeometry x="1020" y="550" width="10" height="60" as="geometry" />
        </mxCell>
        <mxCell id="HPn-6qh27rEuBPYR_i4v-34" value="" style="html=1;points=[[0,0,0,0,5],[0,1,0,0,-5],[1,0,0,0,5],[1,1,0,0,-5]];perimeter=orthogonalPerimeter;outlineConnect=0;targetShapes=umlLifeline;portConstraint=eastwest;newEdgeStyle={&quot;curved&quot;:0,&quot;rounded&quot;:0};fontSize=16;" vertex="1" parent="1">
          <mxGeometry x="455" y="560" width="10" height="50" as="geometry" />
        </mxCell>
        <mxCell id="HPn-6qh27rEuBPYR_i4v-35" value="" style="html=1;points=[[0,0,0,0,5],[0,1,0,0,-5],[1,0,0,0,5],[1,1,0,0,-5]];perimeter=orthogonalPerimeter;outlineConnect=0;targetShapes=umlLifeline;portConstraint=eastwest;newEdgeStyle={&quot;curved&quot;:0,&quot;rounded&quot;:0};fontSize=16;" vertex="1" parent="1">
          <mxGeometry x="285" y="560" width="10" height="50" as="geometry" />
        </mxCell>
        <mxCell id="HPn-6qh27rEuBPYR_i4v-36" value="&lt;font style=&quot;font-size: 14px;&quot;&gt;ProductStatusNegative()&lt;/font&gt;" style="html=1;verticalAlign=bottom;endArrow=open;dashed=1;endSize=8;curved=0;rounded=0;fontSize=12;" edge="1" parent="1">
          <mxGeometry relative="1" as="geometry">
            <mxPoint x="1016" y="570" as="sourcePoint" />
            <mxPoint x="466" y="570" as="targetPoint" />
          </mxGeometry>
        </mxCell>
        <mxCell id="HPn-6qh27rEuBPYR_i4v-37" value="&lt;font style=&quot;font-size: 14px;&quot;&gt;ProductAvailable()&lt;/font&gt;" style="html=1;verticalAlign=bottom;endArrow=open;dashed=1;endSize=8;curved=0;rounded=0;fontSize=12;entryX=1;entryY=1;entryDx=0;entryDy=-5;entryPerimeter=0;" edge="1" parent="1">
          <mxGeometry relative="1" as="geometry">
            <mxPoint x="455" y="500" as="sourcePoint" />
            <mxPoint x="295" y="500" as="targetPoint" />
          </mxGeometry>
        </mxCell>
        <mxCell id="HPn-6qh27rEuBPYR_i4v-38" value="&lt;font style=&quot;font-size: 14px;&quot;&gt;ProductOutOfStock()&lt;/font&gt;" style="html=1;verticalAlign=bottom;endArrow=open;dashed=1;endSize=8;curved=0;rounded=0;fontSize=12;entryX=1;entryY=1;entryDx=0;entryDy=-5;entryPerimeter=0;" edge="1" parent="1">
          <mxGeometry x="-0.0625" relative="1" as="geometry">
            <mxPoint x="455" y="600" as="sourcePoint" />
            <mxPoint x="295" y="600" as="targetPoint" />
            <mxPoint as="offset" />
          </mxGeometry>
        </mxCell>
        <mxCell id="HPn-6qh27rEuBPYR_i4v-41" value="&lt;font style=&quot;font-size: 14px;&quot;&gt;ShowPaymentInformation()&lt;/font&gt;" style="html=1;verticalAlign=bottom;endArrow=open;dashed=1;endSize=8;curved=0;rounded=0;fontSize=12;" edge="1" parent="1">
          <mxGeometry x="0.0435" y="-10" relative="1" as="geometry">
            <mxPoint x="1205.37" y="720" as="sourcePoint" />
            <mxPoint x="295.00043478260875" y="720" as="targetPoint" />
            <mxPoint as="offset" />
          </mxGeometry>
        </mxCell>
        <mxCell id="HPn-6qh27rEuBPYR_i4v-42" value="Loop" style="shape=umlFrame;whiteSpace=wrap;html=1;pointerEvents=0;fontSize=16;" vertex="1" parent="1">
          <mxGeometry x="220" y="640" width="1030" height="120" as="geometry" />
        </mxCell>
        <mxCell id="HPn-6qh27rEuBPYR_i4v-43" value="While (BookingConfirm)" style="text;html=1;align=center;verticalAlign=middle;resizable=0;points=[];autosize=1;strokeColor=none;fillColor=none;fontSize=16;" vertex="1" parent="1">
          <mxGeometry x="630" y="640" width="190" height="30" as="geometry" />
        </mxCell>
        <mxCell id="HPn-6qh27rEuBPYR_i4v-44" value="" style="html=1;points=[[0,0,0,0,5],[0,1,0,0,-5],[1,0,0,0,5],[1,1,0,0,-5]];perimeter=orthogonalPerimeter;outlineConnect=0;targetShapes=umlLifeline;portConstraint=eastwest;newEdgeStyle={&quot;curved&quot;:0,&quot;rounded&quot;:0};fontSize=16;" vertex="1" parent="1">
          <mxGeometry x="1025" y="480" width="10" height="40" as="geometry" />
        </mxCell>
        <mxCell id="HPn-6qh27rEuBPYR_i4v-45" value="Available" style="html=1;align=left;spacingLeft=2;endArrow=block;rounded=0;edgeStyle=orthogonalEdgeStyle;curved=0;rounded=0;fontSize=12;startSize=8;endSize=8;" edge="1" target="HPn-6qh27rEuBPYR_i4v-44" parent="1">
          <mxGeometry relative="1" as="geometry">
            <mxPoint x="1030" y="460" as="sourcePoint" />
            <Array as="points">
              <mxPoint x="1060" y="490" />
            </Array>
          </mxGeometry>
        </mxCell>
        <mxCell id="HPn-6qh27rEuBPYR_i4v-46" value="" style="html=1;points=[[0,0,0,0,5],[0,1,0,0,-5],[1,0,0,0,5],[1,1,0,0,-5]];perimeter=orthogonalPerimeter;outlineConnect=0;targetShapes=umlLifeline;portConstraint=eastwest;newEdgeStyle={&quot;curved&quot;:0,&quot;rounded&quot;:0};fontSize=16;" vertex="1" parent="1">
          <mxGeometry x="1025" y="570" width="10" height="40" as="geometry" />
        </mxCell>
        <mxCell id="HPn-6qh27rEuBPYR_i4v-47" value="OutOfStock" style="html=1;align=left;spacingLeft=2;endArrow=block;rounded=0;edgeStyle=orthogonalEdgeStyle;curved=0;rounded=0;fontSize=12;startSize=8;endSize=8;" edge="1" target="HPn-6qh27rEuBPYR_i4v-46" parent="1">
          <mxGeometry relative="1" as="geometry">
            <mxPoint x="1030" y="550" as="sourcePoint" />
            <Array as="points">
              <mxPoint x="1060" y="580" />
            </Array>
          </mxGeometry>
        </mxCell>
        <mxCell id="HPn-6qh27rEuBPYR_i4v-48" value="&lt;font style=&quot;font-size: 14px;&quot;&gt;FillPaymentInfo()&lt;/font&gt;" style="html=1;verticalAlign=bottom;endArrow=block;curved=0;rounded=0;fontSize=12;startSize=8;endSize=8;" edge="1" parent="1">
          <mxGeometry width="80" relative="1" as="geometry">
            <mxPoint x="79.70000000000005" y="812" as="sourcePoint" />
            <mxPoint x="285" y="812" as="targetPoint" />
          </mxGeometry>
        </mxCell>
        <mxCell id="HPn-6qh27rEuBPYR_i4v-51" value="&lt;font style=&quot;font-size: 14px;&quot;&gt;CheckPaymentInfo()&lt;/font&gt;" style="html=1;verticalAlign=bottom;endArrow=block;curved=0;rounded=0;fontSize=12;startSize=8;endSize=8;" edge="1" parent="1" source="HPn-6qh27rEuBPYR_i4v-49">
          <mxGeometry width="80" relative="1" as="geometry">
            <mxPoint x="330" y="830" as="sourcePoint" />
            <mxPoint x="450" y="840" as="targetPoint" />
          </mxGeometry>
        </mxCell>
        <mxCell id="HPn-6qh27rEuBPYR_i4v-53" value="&lt;font style=&quot;font-size: 14px;&quot;&gt;StorePayment()&lt;/font&gt;" style="html=1;verticalAlign=bottom;endArrow=block;curved=0;rounded=0;fontSize=12;startSize=8;endSize=8;" edge="1" parent="1">
          <mxGeometry width="80" relative="1" as="geometry">
            <mxPoint x="465" y="862" as="sourcePoint" />
            <mxPoint x="1205" y="862" as="targetPoint" />
          </mxGeometry>
        </mxCell>
      </root>
    </mxGraphModel>
  </diagram>
</mxfile>
